Coordinates
version=1
nRows=24
nColumns=24
inDegrees=yes

Units are S.I. units (second, meters, Newtons, ...)
Angles are in degrees.

endheader
time	pelvis_tilt	pelvis_list	pelvis_rotation	pelvis_tx	pelvis_ty	pelvis_tz	hip_flexion_r	hip_adduction_r	hip_rotation_r	knee_angle_r	ankle_angle_r	subtalar_angle_r	mtp_angle_r	hip_flexion_l	hip_adduction_l	hip_rotation_l	knee_angle_l	ankle_angle_l	subtalar_angle_l	mtp_angle_l	lumbar_extension	lumbar_bending	lumbar_rotation
      0.76650000	     -2.45889292	      0.61741644	      2.31662737	     -0.43102310	      1.07087018	      0.30640616	     12.74857318	      1.42865914	     -2.72425685	    -20.69907780	     12.67882320	     -3.04792759	      3.28016446	     19.54039840	     -3.69183556	     -5.12404523	    -69.68585424	      6.99430721	      6.05318215	      1.52575780	     -6.33532191	      1.89505170	     -2.06712479
      0.77066667	     -2.44604868	      0.82612349	      2.29783997	     -0.42548334	      1.07201598	      0.30656534	     12.22146587	      1.23596195	     -2.66090717	    -20.33605953	     12.75374929	     -3.02172203	      3.26179251	     19.97857208	     -3.45471629	     -5.23914973	    -69.19156294	      7.29490123	      6.43361472	      1.51014927	     -6.35551199	      1.64301260	     -2.03499582
      0.77483333	     -2.36699826	      0.99931723	      2.26885422	     -0.41994676	      1.07323874	      0.30673339	     11.60616435	      1.08853545	     -2.58075407	    -19.92843125	     12.82951677	     -3.00181561	      3.22864409	     20.33047450	     -3.27276198	     -5.37158904	    -68.64450727	      7.61119163	      6.88185525	      1.48430054	     -6.45729250	      1.43687031	     -1.92481313
      0.77900000	     -2.31660524	      1.19722833	      2.23324846	     -0.41440808	      1.07438649	      0.30688698	     11.02974630	      0.91011548	     -2.49957158	    -19.53808698	     12.88776893	     -2.98740978	      3.19408657	     20.69175754	     -3.05498137	     -5.50574582	    -68.02357988	      7.90667689	      7.32097702	      1.46487759	     -6.52667514	      1.19879657	     -1.82566922
      0.78316667	     -2.24536011	      1.39074910	      2.19239283	     -0.40887898	      1.07552633	      0.30703036	     10.43084128	      0.73584633	     -2.41906928	    -19.14278858	     12.94146749	     -2.97359645	      3.15728985	     21.01322272	     -2.84269082	     -5.64392601	    -67.34150392	      8.19153800	      7.76622686	      1.45151930	     -6.62177902	      0.96614216	     -1.72355787
      0.78733333	     -2.21896544	      1.59447768	      2.14529055	     -0.40334810	      1.07654155	      0.30715870	      9.89284754	      0.54521566	     -2.34425309	    -18.77382760	     12.99097826	     -2.95817390	      3.13570812	     21.36580126	     -2.61291981	     -5.78444254	    -66.59815305	      8.45390014	      8.20132342	      1.45131558	     -6.65768586	      0.72881423	     -1.66534206
      0.79150000	     -2.14987264	      1.76366400	      2.09039324	     -0.39781814	      1.07756648	      0.30730027	      9.29376651	      0.39861570	     -2.24272322	    -18.36451894	     13.05309147	     -2.96061401	      3.10016746	     21.66015856	     -2.43428612	     -5.93705717	    -65.81405323	      8.72245909	      8.65371692	      1.45154606	     -6.74780572	      0.51885535	     -1.53142612
      0.79566667	     -2.11095443	      1.96039358	      2.03128688	     -0.39229670	      1.07850835	      0.30741802	      8.74557239	      0.21408654	     -2.15970354	    -17.99445493	     13.09161990	     -2.95339991	      3.07823363	     21.96455848	     -2.21164196	     -6.08067101	    -64.95701194	      8.96131018	      9.06005659	      1.45673238	     -6.80056902	      0.29216411	     -1.46592491
      0.79983333	     -2.00947202	      2.12535616	      1.96315832	     -0.38678258	      1.07950558	      0.30754848	      8.11256882	      0.07129944	     -2.04542181	    -17.57990168	     13.15149619	     -2.96744627	      3.04130762	     22.18647562	     -2.03685682	     -6.23828676	    -64.05519059	      9.19373083	      9.45967115	      1.46456687	     -6.93391448	      0.09124506	     -1.32044262
      0.80400000	     -1.96909915	      2.29717809	      1.89241154	     -0.38126945	      1.08031990	      0.30766267	      7.56150594	     -0.08485990	     -1.93450657	    -17.19841653	     13.19572896	     -2.97917569	      2.99841746	     22.46075221	     -1.84422706	     -6.38520699	    -63.10641417	      9.41013193	      9.81043549	      1.47544287	     -6.99753495	     -0.11817462	     -1.19302295
      0.80816667	     -1.92265391	      2.46683520	      1.81489363	     -0.37575484	      1.08109986	      0.30777297	      7.00731721	     -0.24113608	     -1.82970646	    -16.82093705	     13.25181513	     -2.99292113	      2.95709205	     22.70867677	     -1.65614129	     -6.54013669	    -62.10104154	      9.60505637	     10.12444350	      1.48780721	     -7.05552127	     -0.32035909	     -1.07917729
      0.81233333	     -1.87080780	      2.62681537	      1.73645201	     -0.37025883	      1.08182783	      0.30787310	      6.44937232	     -0.38811663	     -1.72298645	    -16.44371147	     13.30410885	     -3.00915901	      2.91518207	     22.93716354	     -1.47514341	     -6.68479669	    -61.05053489	      9.78629526	     10.39670389	      1.50119484	     -7.12752016	     -0.51183603	     -0.96630874
      0.81650000	     -1.84801619	      2.78377547	      1.65290425	     -0.36475503	      1.08243713	      0.30796320	      5.93016169	     -0.53472453	     -1.60831196	    -16.08090777	     13.36079968	     -3.02592136	      2.86671986	     23.17967762	     -1.29413769	     -6.82579921	    -59.95326227	      9.95165906	     10.62046683	      1.51675187	     -7.16655465	     -0.69767159	     -0.83723516
      0.82066667	     -1.79904903	      2.94053143	      1.56643307	     -0.35927385	      1.08303573	      0.30804696	      5.38678638	     -0.68364489	     -1.50591052	    -15.72260098	     13.42813001	     -3.03647898	      2.82210913	     23.37614601	     -1.11264883	     -6.96600509	    -58.80492226	     10.09662953	     10.79787058	      1.53096740	     -7.23296707	     -0.88307208	     -0.72496382
      0.82483333	     -1.81242489	      3.08430639	      1.48567968	     -0.35379173	      1.08344995	      0.30810447	      4.92229268	     -0.82364089	     -1.41384027	    -15.38866146	     13.48059373	     -3.03889611	      2.79486899	     23.62987245	     -0.93559752	     -7.08168059	    -57.62139143	     10.24008497	     10.94184944	      1.54008504	     -7.22627376	     -1.05022610	     -0.65436915
      0.82900000	     -1.76783941	      3.20977381	      1.39806787	     -0.34833140	      1.08389276	      0.30817697	      4.38408874	     -0.93917313	     -1.29531996	    -15.02498969	     13.56279847	     -3.07020226	      2.73957552	     23.80527373	     -0.78541376	     -7.20193102	    -56.39866174	     10.34910836	     11.01952005	      1.55635415	     -7.29873924	     -1.20056216	     -0.48151221
      0.83316667	     -1.75816166	      3.34146691	      1.31048993	     -0.34287225	      1.08422187	      0.30823365	      3.89670174	     -1.06737716	     -1.19370177	    -14.68832626	     13.63928406	     -3.08549582	      2.68373038	     23.99925097	     -0.62118907	     -7.30855138	    -55.12524302	     10.44585787	     11.06586177	      1.57286408	     -7.32362777	     -1.35605342	     -0.35686544
      0.83733333	     -1.79927116	      3.46273634	      1.22714751	     -0.33741344	      1.08438732	      0.30826607	      3.47630446	     -1.18868316	     -1.10529699	    -14.37689784	     13.71305858	     -3.09179955	      2.64687393	     24.23411425	     -0.46186546	     -7.39754472	    -53.81556954	     10.54240564	     11.08981282	      1.58327030	     -7.28414999	     -1.49565402	     -0.27612672
      0.84150000	     -1.81010776	      3.56843608	      1.14804500	     -0.33197086	      1.08453654	      0.30829140	      3.01965881	     -1.29291752	     -1.01947411	    -14.05659213	     13.79952086	     -3.10389800	      2.60867891	     24.42145762	     -0.31763392	     -7.47096151	    -52.46708787	     10.61819260	     11.06576864	      1.59335081	     -7.28813689	     -1.61926983	     -0.17173271
      0.84566667	     -1.83601938	      3.66306749	      1.07345795	     -0.32653321	      1.08459780	      0.30829480	      2.58025743	     -1.38747019	     -0.93345163	    -13.73711228	     13.88898065	     -3.11555639	      2.56759247	     24.60996535	     -0.18021189	     -7.52694267	    -51.08076595	     10.67742584	     11.00780485	      1.60395173	     -7.27317885	     -1.72865775	     -0.06027390
      0.84983333	     -1.86475602	      3.76355058	      1.00006183	     -0.32110774	      1.08459165	      0.30829449	      2.15178616	     -1.49058737	     -0.86076500	    -13.43355705	     13.99251792	     -3.12060678	      2.52255403	     24.78055565	     -0.03213131	     -7.57007102	    -49.64556010	     10.71765754	     10.91150582	      1.61561415	     -7.25849396	     -1.84462759	      0.05389031
      0.85400000	     -1.89349211	      3.83526709	      0.93887572	     -0.31569904	      1.08451096	      0.30826009	      1.71787249	     -1.56304024	     -0.78893078	    -13.11745676	     14.10451311	     -3.11809395	      2.44212086	     24.94174780	      0.09359406	     -7.57834551	    -48.18506794	     10.74636948	     10.76770125	      1.63999305	     -7.25624033	     -1.92543353	      0.21232897
      0.85816667	     -1.95990815	      3.90904984	      0.87930403	     -0.31027757	      1.08431226	      0.30822275	      1.33945418	     -1.64118094	     -0.73967348	    -12.83508652	     14.20623405	     -3.11963302	      2.39641130	     25.12160309	      0.21999381	     -7.58519267	    -46.67936100	     10.78286059	     10.67583211	      1.65254479	     -7.18926143	     -2.01058965	      0.27799776
      0.86233333	     -2.01046239	      3.96727674	      0.83346298	     -0.30487620	      1.08406272	      0.30814211	      0.93699946	     -1.70401897	     -0.69780667	    -12.53877273	     14.33736961	     -3.10182532	      2.31827966	     25.27177222	      0.34325740	     -7.55065294	    -45.14306380	     10.78669941	     10.48818976	      1.67612165	     -7.16098389	     -2.06691962	      0.39656723
